<?xml version="1.0" encoding="UTF-8"?>
<svg width="37px" height="23px" viewBox="0 0 37 23" version="1.1" xmlns="http://www.w3.org/2000/svg" xmlns:xlink="http://www.w3.org/1999/xlink">
    <title>149-1491243_quotation-marks-clipart</title>
    <g id="Page-1" stroke="none" stroke-width="1" fill="none" fill-rule="evenodd">
        <g id="149-1491243_quotation-marks-clipart" transform="translate(18.500000, 11.500000) scale(-1, -1) translate(-18.500000, -11.500000) " fill="#fff" fill-rule="nonzero">
            <path d="M2.63735945,22.7242776 C2.98296271,23.1532413 3.44524749,22.9808608 3.90417893,22.8726165 C4.88134386,22.6421388 5.85008817,22.3604439 6.77315246,21.9541075 C10.6430624,20.2504454 14.0151868,16.9353886 15.379924,12.7865989 C15.908374,11.1801349 16.1359172,9.35053183 15.9175026,7.66487219 C15.7278895,6.20131968 15.3597294,4.82999646 14.5718422,3.5751352 C13.8425268,2.41358492 12.7954632,1.40276629 11.5796146,0.794851726 C8.78158297,-0.604132633 5.13940244,-0.131151492 2.82365643,2.01452596 C0.433861093,4.22880513 -0.490544535,7.60578123 0.248445668,10.7990632 C0.721358323,12.8425939 2.11898064,14.3947064 3.86691953,15.4076999 C4.41869394,15.7274638 5.01763874,15.9937171 5.61811117,16.2010706 C5.80038414,16.2639838 6.25800405,16.3295725 6.35893975,16.5101324 C6.42596941,16.6300726 6.34955038,16.8630347 6.32902046,16.9910014 C6.25882375,17.4290619 6.17458026,17.8676958 6.04026013,18.290544 C5.46251593,20.1092539 4.28966465,21.7806185 2.63735945,22.7242776 Z" id="Path"></path>
            <path d="M23.6603725,22.699898 L23.6603725,22.7762388 C23.7750171,22.8552134 23.8960828,22.9573575 24.0336862,22.9886954 C24.2195217,23.0310264 24.448587,22.9435398 24.6309881,22.9060183 C25.0691463,22.8158597 25.5079019,22.7114636 25.9375859,22.5853867 C28.0169804,21.9752324 29.9222987,20.975549 31.6119537,19.5928253 C34.9144358,16.890321 37.1769033,12.8085665 36.9891265,8.42415877 C36.9124105,6.6321718 36.4939632,4.87606502 35.4724277,3.38566258 C34.991525,2.68405199 34.4063932,2.04536152 33.7398416,1.52432376 C31.3975223,-0.306687894 27.8287183,-0.486360668 25.2656213,0.975654427 C23.1025299,2.20949435 21.5480891,4.43653257 21.1380787,6.93551217 C20.7538269,9.27753498 21.1394973,11.8191128 22.7005457,13.6535071 C23.1101455,14.1348362 23.5956399,14.5510083 24.1083489,14.9121769 C24.7880038,15.3909104 25.5394842,15.7728436 26.3108996,16.0703058 C26.5579586,16.165541 26.8066601,16.2538673 27.0575269,16.3380331 C27.1559324,16.3710505 27.2952904,16.3926932 27.3549832,16.4896842 C27.4319232,16.6146542 27.3608816,16.8388291 27.3403493,16.9743341 C27.2758407,17.3995908 27.181467,17.8229772 27.0565563,18.2339582 C26.4749709,20.1475561 25.2687945,21.5904364 23.6603725,22.699898 Z" id="Path"></path>
        </g>
    </g>
</svg>